<svg xmlns="http://www.w3.org/2000/svg" viewBox="0 0 512 512">
  <!-- Generated by scripts/outline-brand.mjs: do not edit by hand. Text outlined: "Б" (Source Serif 4 Bold) -->
  <rect width="512" height="512" fill="#16213a"/>
  <path transform="translate(156.85 364.79)" d="M9 0L9 -19.5L49.2 -21.6L54 -21.6L54 0ZM32.7 0Q33 -15 33.15 -30.15Q33.3 -45.3 33.3 -60.45Q33.3 -75.6 33.3 -90.9L33.3 -106.2Q33.3 -121.5 33.3 -136.65Q33.3 -151.8 33.15 -166.95Q33 -182.1 32.7 -197.1L86.1 -197.1Q85.8 -182.4 85.65 -167.25Q85.5 -152.1 85.5 -137.7Q85.5 -123.3 85.5 -109.2L85.5 -90.9Q85.5 -75.9 85.5 -60.75Q85.5 -45.6 85.65 -30.45Q85.8 -15.3 86.1 0ZM64.8 0L64.8 -18.9L94.5 -18.9Q108.9 -18.9 118.05 -23.55Q127.2 -28.2 131.7 -37.35Q136.2 -46.5 136.2 -59.7Q136.2 -72.9 132.15 -81.6Q128.1 -90.3 119.4 -94.65Q110.7 -99 96.3 -99Q86.7 -99 79.35 -97.95Q72 -96.9 65.1 -95.1L65.1 -114.6Q74.4 -116.1 85.05 -117.3Q95.7 -118.5 107.4 -118.5Q135.6 -118.5 153.75 -111.15Q171.9 -103.8 180.6 -90.9Q189.3 -78 189.3 -60.9Q189.3 -48.6 184.5 -37.5Q179.7 -26.4 169.05 -18Q158.4 -9.6 140.85 -4.8Q123.3 0 97.5 0ZM9 -177.9L9 -197.1L54 -197.1L54 -175.5L49.2 -175.5ZM147.3 -140.4L134.7 -193.2L155.1 -177.9L71.1 -177.9L71.1 -197.1L169.8 -197.1L170.7 -140.4Z" fill="#faf6ef"/>
</svg>
