<svg xmlns="http://www.w3.org/2000/svg" width="1200" height="630" viewBox="0 0 1200 630">
  <!-- Generated by scripts/outline-brand.mjs: do not edit by hand. Text outlined: "Б" / "Bukvar" (Source Serif 4 Bold) + "Learn Serbian Cyrillic — free & open" (Inter) -->
  <rect width="1200" height="630" fill="#16213a"/>
  <rect x="96" y="175" width="280" height="280" rx="56" fill="#faf6ef"/>
  <path transform="translate(169.9 380.7)" d="M6 0L6 -13L32.8 -14.4L36 -14.4L36 0ZM21.8 0Q22 -10 22.1 -20.1Q22.2 -30.2 22.2 -40.3Q22.2 -50.4 22.2 -60.6L22.2 -70.8Q22.2 -81 22.2 -91.1Q22.2 -101.2 22.1 -111.3Q22 -121.4 21.8 -131.4L57.4 -131.4Q57.2 -121.6 57.1 -111.5Q57 -101.4 57 -91.8Q57 -82.2 57 -72.8L57 -60.6Q57 -50.6 57 -40.5Q57 -30.4 57.1 -20.3Q57.2 -10.2 57.4 0ZM43.2 0L43.2 -12.6L63 -12.6Q72.6 -12.6 78.7 -15.7Q84.8 -18.8 87.8 -24.9Q90.8 -31 90.8 -39.8Q90.8 -48.6 88.1 -54.4Q85.4 -60.2 79.6 -63.1Q73.8 -66 64.2 -66Q57.8 -66 52.9 -65.3Q48 -64.6 43.4 -63.4L43.4 -76.4Q49.6 -77.4 56.7 -78.2Q63.8 -79 71.6 -79Q90.4 -79 102.5 -74.1Q114.6 -69.2 120.4 -60.6Q126.2 -52 126.2 -40.6Q126.2 -32.4 123 -25Q119.8 -17.6 112.7 -12Q105.6 -6.4 93.9 -3.2Q82.2 0 65 0ZM6 -118.6L6 -131.4L36 -131.4L36 -117L32.8 -117ZM98.2 -93.6L89.8 -128.8L103.4 -118.6L47.4 -118.6L47.4 -131.4L113.2 -131.4L113.8 -93.6Z" fill="#16213a"/>
  <path transform="translate(432 300)" d="M3.22 0L3.22 -6.76L16.54 -7.49L18.2 -7.49L18.2 0ZM11.44 0Q11.54 -5.2 11.6 -10.45Q11.65 -15.7 11.65 -20.96Q11.65 -26.21 11.65 -31.51L11.65 -36.82Q11.65 -42.12 11.65 -47.37Q11.65 -52.62 11.6 -57.88Q11.54 -63.13 11.44 -68.33L29.95 -68.33Q29.85 -63.23 29.8 -57.98Q29.74 -52.73 29.74 -47.48Q29.74 -42.22 29.74 -36.82L29.74 -31.72Q29.74 -26.42 29.74 -21.11Q29.74 -15.81 29.8 -10.56Q29.85 -5.3 29.95 0ZM23.3 0L23.3 -6.76L33.7 -6.76Q41.7 -6.76 45.55 -10.04Q49.4 -13.31 49.4 -19.45Q49.4 -26 45.71 -29.17Q42.02 -32.34 34.11 -32.34L22.36 -32.34L22.36 -38.69L33.38 -38.69Q37.75 -38.69 40.61 -40.09Q43.47 -41.5 44.88 -44.15Q46.28 -46.8 46.28 -50.54Q46.28 -54.18 44.93 -56.63Q43.58 -59.07 40.92 -60.37Q38.27 -61.67 34.11 -61.67L23.3 -61.67L23.3 -68.33L37.02 -68.33Q46.28 -68.33 52.31 -66.4Q58.34 -64.48 61.31 -60.89Q64.27 -57.3 64.27 -52.42Q64.27 -47.94 61.83 -44.56Q59.38 -41.18 54.44 -39.21Q49.5 -37.23 41.81 -36.71L41.81 -35.98Q50.65 -35.67 56.52 -33.8Q62.4 -31.93 65.26 -28.34Q68.12 -24.75 68.12 -19.45Q68.12 -15.5 66.35 -11.96Q64.58 -8.42 60.68 -5.72Q56.78 -3.02 50.34 -1.51Q43.89 0 34.74 0ZM3.22 -61.67L3.22 -68.33L18.2 -68.33L18.2 -60.84L16.54 -60.84ZM94.02 1.56Q86.74 1.56 82.63 -2.86Q78.52 -7.28 78.62 -16.85L78.94 -46.07L82.78 -41.6L72.07 -44.2L72.07 -49.4L92.35 -52.31L96.2 -51.79L95.89 -37.54L95.89 -18.51Q95.89 -13.83 97.55 -11.96Q99.22 -10.09 102.44 -10.09Q104.62 -10.09 106.81 -10.97Q108.99 -11.86 111.12 -13.42Q113.26 -14.98 115.23 -16.85L116.38 -11.44L113.05 -11.44Q110.76 -7.7 108.06 -4.73Q105.35 -1.77 101.92 -0.1Q98.49 1.56 94.02 1.56ZM113.98 1.14L112.84 -10.92L112.11 -11.02L112.32 -42.64L105.77 -44.2L105.77 -49.3L125.84 -52.31L129.58 -51.79L129.48 -37.54L129.48 -7.07L135.82 -5.72L135.82 0ZM141.23 0L141.23 -6.14L151.84 -7.18L160.26 -7.18L170.98 -6.14L170.98 0ZM147.47 0Q147.58 -2.29 147.58 -5.04Q147.58 -7.8 147.63 -10.82Q147.68 -13.83 147.68 -16.8Q147.68 -19.76 147.68 -22.36L147.68 -64.27L140.71 -65.83L140.71 -70.93L161.3 -74.98L165.15 -74.46L164.94 -60.22L164.94 -22.78Q164.94 -20.07 164.94 -17.06Q164.94 -14.04 164.94 -10.92Q164.94 -7.8 165 -5.04Q165.05 -2.29 165.05 0ZM157.04 -14.14L157.04 -23.5L161.93 -23.5L175.66 -37.86L189.38 -51.27L199.68 -51.27ZM182.21 0L169.31 -27.87L180.86 -38.58L197.6 -6.97L203.84 -6.03L203.84 0ZM174.41 -46.07L174.41 -51.9L201.66 -51.9L201.66 -46.07L188.97 -44.51L186.37 -44.41ZM229.53 0.1L208.62 -51.9L227.76 -51.9L240.76 -12.9L240.55 -12.9L242.63 -23.92L252.3 -51.9L260.94 -51.9L240.34 0.1ZM205.5 -46.07L205.5 -51.9L237.02 -51.9L237.02 -46.07L227.24 -44.41L215.07 -44.41ZM243.15 -46.07L243.15 -51.9L264.47 -51.9L264.47 -46.07L255.32 -44.51L252.62 -44.51ZM280.07 1.66Q273.94 1.66 269.98 -1.98Q266.03 -5.62 266.03 -11.96Q266.03 -16.02 267.85 -19.19Q269.67 -22.36 274.09 -24.86Q278.51 -27.35 286.1 -29.22Q288.81 -29.95 291.46 -30.58Q294.11 -31.2 296.76 -31.93Q299.42 -32.66 302.02 -33.28L302.02 -28.7Q299 -27.77 295.83 -26.83Q292.66 -25.9 289.64 -24.96Q286.83 -24.13 285.06 -22.72Q283.3 -21.32 282.57 -19.45Q281.84 -17.58 281.84 -15.39Q281.84 -11.96 283.87 -10.14Q285.9 -8.32 289.22 -8.32Q290.99 -8.32 292.55 -8.84Q294.11 -9.36 295.88 -10.35Q297.65 -11.34 299.83 -12.9L300.35 -7.38L295.78 -7.38Q293.8 -4.99 291.77 -2.96Q289.74 -0.94 286.99 0.36Q284.23 1.66 280.07 1.66ZM309.19 1.56Q303.58 1.56 300.51 -1.25Q297.44 -4.06 296.61 -9.05L296.09 -9.26L296.09 -36.3Q296.09 -40.46 295.15 -42.85Q294.22 -45.24 292.19 -46.28Q290.16 -47.32 287.04 -47.32Q284.65 -47.32 282.36 -46.96Q280.07 -46.59 277.68 -45.76L283.4 -50.65L282.88 -42.64Q282.78 -37.34 280.49 -35Q278.2 -32.66 275.18 -32.66Q272.06 -32.66 270.19 -34.16Q268.32 -35.67 267.7 -38.38Q268.53 -45.34 274.82 -49.4Q281.11 -53.46 292.03 -53.46Q299.1 -53.46 303.78 -51.43Q308.46 -49.4 310.75 -45.14Q313.04 -40.87 313.04 -34.11L313.04 -11.23Q313.04 -9.57 313.82 -8.68Q314.6 -7.8 315.95 -7.8Q316.99 -7.8 317.93 -8.11Q318.86 -8.42 319.8 -9.15L321.78 -5.2Q319.9 -2.08 316.78 -0.26Q313.66 1.56 309.19 1.56ZM324.69 0L324.69 -6.14L335.4 -7.18L345.38 -7.18L357.24 -6.14L357.24 0ZM331.03 0Q331.03 -3.12 331.08 -6.97Q331.14 -10.82 331.14 -14.87Q331.14 -18.93 331.14 -22.36L331.14 -28.29Q331.14 -30.78 331.14 -32.76Q331.14 -34.74 331.08 -36.56Q331.03 -38.38 331.03 -40.46L324.06 -40.87L324.06 -46.38L342.89 -52.62L346.42 -52.1L347.57 -38.69L348.4 -38.58L348.4 -22.36Q348.4 -18.93 348.45 -14.87Q348.5 -10.82 348.5 -6.97Q348.5 -3.12 348.61 0ZM346.94 -28.7L345.07 -37.96L348.92 -37.96Q350.27 -43.16 352.35 -46.49Q354.43 -49.82 357.19 -51.48Q359.94 -53.14 363.06 -53.14Q366.81 -53.14 369.3 -51.12Q371.8 -49.09 372.42 -45.24Q372.11 -41.29 369.88 -38.79Q367.64 -36.3 364.1 -36.3Q361.5 -36.3 359.48 -37.54Q357.45 -38.79 355.68 -41.08L353.7 -43.58L358.8 -42.85Q354.74 -40.98 351.62 -37.28Q348.5 -33.59 346.94 -28.7Z" fill="#faf6ef"/>
  <path transform="translate(436 384)" d="M3.52 0L3.52 -29.1L7.23 -29.1L7.23 -3.28L20.7 -3.28L20.7 0ZM34.88 0.47Q31.72 0.47 29.42 -0.94Q27.13 -2.34 25.89 -4.86Q24.65 -7.38 24.65 -10.74Q24.65 -14.1 25.86 -16.66Q27.07 -19.22 29.29 -20.66Q31.5 -22.11 34.47 -22.11Q36.21 -22.11 37.9 -21.53Q39.59 -20.96 40.97 -19.68Q42.34 -18.4 43.16 -16.31Q43.98 -14.22 43.98 -11.19L43.98 -9.73L27.03 -9.73L27.03 -12.7L42.09 -12.7L40.45 -11.6Q40.45 -13.75 39.78 -15.42Q39.1 -17.09 37.77 -18.04Q36.45 -18.98 34.47 -18.98Q32.5 -18.98 31.09 -18.02Q29.69 -17.05 28.95 -15.5Q28.2 -13.95 28.2 -12.17L28.2 -10.2Q28.2 -7.77 29.04 -6.08Q29.88 -4.39 31.4 -3.53Q32.91 -2.66 34.9 -2.66Q36.19 -2.66 37.25 -3.03Q38.3 -3.4 39.06 -4.15Q39.82 -4.9 40.23 -6.02L43.63 -5.08Q43.13 -3.44 41.91 -2.19Q40.7 -0.94 38.92 -0.23Q37.13 0.47 34.88 0.47ZM55.53 0.51Q53.46 0.51 51.77 -0.27Q50.08 -1.05 49.08 -2.56Q48.09 -4.06 48.09 -6.21Q48.09 -8.09 48.83 -9.26Q49.57 -10.43 50.81 -11.1Q52.05 -11.78 53.55 -12.11Q55.06 -12.44 56.58 -12.64Q58.54 -12.89 59.77 -13.03Q61 -13.16 61.59 -13.5Q62.19 -13.83 62.19 -14.63L62.19 -14.75Q62.19 -16.11 61.68 -17.06Q61.17 -18.01 60.16 -18.52Q59.14 -19.02 57.62 -19.02Q56.05 -19.02 54.94 -18.54Q53.83 -18.05 53.13 -17.31Q52.44 -16.58 52.09 -15.82L48.71 -16.93Q49.55 -18.93 50.98 -20.05Q52.4 -21.17 54.12 -21.64Q55.84 -22.11 57.52 -22.11Q58.61 -22.11 60.01 -21.85Q61.41 -21.58 62.71 -20.8Q64 -20.02 64.85 -18.49Q65.7 -16.95 65.7 -14.39L65.7 0L62.25 0L62.25 -2.97L62.01 -2.97Q61.64 -2.21 60.82 -1.4Q60 -0.59 58.69 -0.04Q57.38 0.51 55.53 0.51ZM56.13 -2.6Q58.09 -2.6 59.43 -3.36Q60.78 -4.12 61.48 -5.34Q62.19 -6.56 62.19 -7.89L62.19 -10.92Q61.97 -10.66 61.25 -10.46Q60.53 -10.25 59.6 -10.1Q58.67 -9.94 57.8 -9.83Q56.93 -9.73 56.43 -9.67Q55.16 -9.51 54.05 -9.13Q52.95 -8.75 52.29 -8.02Q51.62 -7.29 51.62 -6.04Q51.62 -4.9 52.21 -4.14Q52.79 -3.38 53.81 -2.99Q54.82 -2.6 56.13 -2.6ZM71.88 0L71.88 -21.84L75.27 -21.84L75.27 -18.48L75.51 -18.48Q76.11 -20.14 77.67 -21.14Q79.22 -22.15 81.17 -22.15Q81.56 -22.15 82.1 -22.13Q82.64 -22.11 82.95 -22.09L82.95 -18.55Q82.79 -18.59 82.17 -18.67Q81.54 -18.75 80.84 -18.75Q79.28 -18.75 78.04 -18.1Q76.8 -17.44 76.09 -16.3Q75.39 -15.16 75.39 -13.67L75.39 0ZM91.07 -13.09L91.07 0L87.56 0L87.56 -21.84L90.94 -21.84L90.96 -16.54L90.47 -16.54Q91.46 -19.57 93.31 -20.84Q95.16 -22.11 97.64 -22.11Q99.84 -22.11 101.5 -21.2Q103.16 -20.29 104.09 -18.47Q105.02 -16.64 105.02 -13.87L105.02 0L101.5 0L101.5 -13.57Q101.5 -16.09 100.19 -17.52Q98.87 -18.95 96.58 -18.95Q95.02 -18.95 93.77 -18.26Q92.52 -17.58 91.8 -16.27Q91.07 -14.96 91.07 -13.09ZM132.19 0.51Q129.04 0.51 126.73 -0.51Q124.41 -1.52 123.11 -3.35Q121.8 -5.18 121.62 -7.62L125.43 -7.62Q125.59 -5.98 126.54 -4.91Q127.5 -3.85 128.99 -3.33Q130.49 -2.81 132.19 -2.81Q134.16 -2.81 135.73 -3.46Q137.3 -4.1 138.22 -5.27Q139.14 -6.45 139.14 -7.99Q139.14 -9.39 138.35 -10.27Q137.56 -11.15 136.25 -11.72Q134.94 -12.29 133.38 -12.71L129.86 -13.71Q126.35 -14.71 124.39 -16.56Q122.44 -18.42 122.44 -21.31Q122.44 -23.77 123.77 -25.62Q125.1 -27.46 127.36 -28.48Q129.63 -29.49 132.44 -29.49Q135.31 -29.49 137.52 -28.48Q139.73 -27.46 141.01 -25.71Q142.29 -23.96 142.36 -21.76L138.73 -21.76Q138.48 -23.89 136.7 -25.05Q134.92 -26.21 132.32 -26.21Q130.45 -26.21 129.03 -25.6Q127.62 -24.98 126.84 -23.92Q126.05 -22.85 126.05 -21.48Q126.05 -19.96 127 -19.03Q127.95 -18.11 129.25 -17.59Q130.55 -17.07 131.6 -16.78L134.51 -15.98Q135.68 -15.66 137.1 -15.12Q138.52 -14.57 139.8 -13.66Q141.09 -12.75 141.92 -11.36Q142.75 -9.96 142.75 -7.93Q142.75 -5.55 141.51 -3.63Q140.27 -1.72 137.91 -0.61Q135.55 0.51 132.19 0.51ZM157.29 0.47Q154.12 0.47 151.83 -0.94Q149.53 -2.34 148.29 -4.86Q147.05 -7.38 147.05 -10.74Q147.05 -14.1 148.26 -16.66Q149.47 -19.22 151.69 -20.66Q153.91 -22.11 156.88 -22.11Q158.61 -22.11 160.3 -21.53Q161.99 -20.96 163.37 -19.68Q164.75 -18.4 165.57 -16.31Q166.39 -14.22 166.39 -11.19L166.39 -9.73L149.43 -9.73L149.43 -12.7L164.49 -12.7L162.85 -11.6Q162.85 -13.75 162.18 -15.42Q161.5 -17.09 160.18 -18.04Q158.85 -18.98 156.88 -18.98Q154.9 -18.98 153.5 -18.02Q152.09 -17.05 151.35 -15.5Q150.61 -13.95 150.61 -12.17L150.61 -10.2Q150.61 -7.77 151.45 -6.08Q152.29 -4.39 153.8 -3.53Q155.31 -2.66 157.3 -2.66Q158.59 -2.66 159.65 -3.03Q160.7 -3.4 161.46 -4.15Q162.23 -4.9 162.64 -6.02L166.04 -5.08Q165.53 -3.44 164.32 -2.19Q163.11 -0.94 161.32 -0.23Q159.53 0.47 157.29 0.47ZM171.43 0L171.43 -21.84L174.82 -21.84L174.82 -18.48L175.06 -18.48Q175.66 -20.14 177.22 -21.14Q178.77 -22.15 180.72 -22.15Q181.11 -22.15 181.65 -22.13Q182.19 -22.11 182.5 -22.09L182.5 -18.55Q182.34 -18.59 181.72 -18.67Q181.09 -18.75 180.39 -18.75Q178.83 -18.75 177.59 -18.1Q176.35 -17.44 175.64 -16.3Q174.94 -15.16 174.94 -13.67L174.94 0ZM197.25 0.47Q195.18 0.47 193.91 -0.24Q192.64 -0.96 191.95 -1.87Q191.27 -2.77 190.9 -3.38L190.51 -3.38L190.51 0L187.11 0L187.11 -29.1L190.63 -29.1L190.63 -18.34L190.9 -18.34Q191.27 -18.93 191.93 -19.81Q192.6 -20.7 193.85 -21.41Q195.1 -22.11 197.23 -22.11Q199.96 -22.11 202.04 -20.74Q204.12 -19.38 205.3 -16.85Q206.48 -14.32 206.48 -10.86Q206.48 -7.38 205.31 -4.84Q204.14 -2.3 202.06 -0.92Q199.98 0.47 197.25 0.47ZM196.72 -2.68Q198.77 -2.68 200.15 -3.78Q201.52 -4.88 202.22 -6.75Q202.91 -8.61 202.91 -10.9Q202.91 -13.16 202.23 -14.99Q201.54 -16.82 200.17 -17.89Q198.79 -18.96 196.72 -18.96Q194.71 -18.96 193.34 -17.95Q191.97 -16.93 191.28 -15.13Q190.59 -13.32 190.59 -10.9Q190.59 -8.48 191.29 -6.62Q191.99 -4.77 193.37 -3.72Q194.75 -2.68 196.72 -2.68ZM211.6 0L211.6 -21.84L215.12 -21.84L215.12 0ZM213.38 -25.41Q212.38 -25.41 211.66 -26.09Q210.94 -26.78 210.94 -27.73Q210.94 -28.71 211.66 -29.38Q212.38 -30.06 213.38 -30.06Q214.39 -30.06 215.12 -29.38Q215.84 -28.71 215.84 -27.73Q215.84 -26.78 215.12 -26.09Q214.39 -25.41 213.38 -25.41ZM227.4 0.51Q225.33 0.51 223.64 -0.27Q221.95 -1.05 220.96 -2.56Q219.96 -4.06 219.96 -6.21Q219.96 -8.09 220.7 -9.26Q221.45 -10.43 222.69 -11.1Q223.93 -11.78 225.43 -12.11Q226.93 -12.44 228.46 -12.64Q230.41 -12.89 231.64 -13.03Q232.87 -13.16 233.47 -13.5Q234.06 -13.83 234.06 -14.63L234.06 -14.75Q234.06 -16.11 233.55 -17.06Q233.05 -18.01 232.03 -18.52Q231.02 -19.02 229.49 -19.02Q227.93 -19.02 226.82 -18.54Q225.7 -18.05 225.01 -17.31Q224.32 -16.58 223.96 -15.82L220.59 -16.93Q221.43 -18.93 222.85 -20.05Q224.28 -21.17 226 -21.64Q227.71 -22.11 229.39 -22.11Q230.49 -22.11 231.88 -21.85Q233.28 -21.58 234.58 -20.8Q235.88 -20.02 236.73 -18.49Q237.58 -16.95 237.58 -14.39L237.58 0L234.12 0L234.12 -2.97L233.89 -2.97Q233.52 -2.21 232.7 -1.4Q231.88 -0.59 230.57 -0.04Q229.26 0.51 227.4 0.51ZM228.01 -2.6Q229.96 -2.6 231.31 -3.36Q232.66 -4.12 233.36 -5.34Q234.06 -6.56 234.06 -7.89L234.06 -10.92Q233.85 -10.66 233.13 -10.46Q232.4 -10.25 231.47 -10.1Q230.55 -9.94 229.68 -9.83Q228.81 -9.73 228.3 -9.67Q227.03 -9.51 225.93 -9.13Q224.82 -8.75 224.16 -8.02Q223.5 -7.29 223.5 -6.04Q223.5 -4.9 224.08 -4.14Q224.67 -3.38 225.68 -2.99Q226.7 -2.6 228.01 -2.6ZM247.27 -13.09L247.27 0L243.75 0L243.75 -21.84L247.13 -21.84L247.15 -16.54L246.66 -16.54Q247.66 -19.57 249.5 -20.84Q251.35 -22.11 253.83 -22.11Q256.04 -22.11 257.7 -21.2Q259.36 -20.29 260.28 -18.47Q261.21 -16.64 261.21 -13.87L261.21 0L257.7 0L257.7 -13.57Q257.7 -16.09 256.38 -17.52Q255.06 -18.95 252.77 -18.95Q251.21 -18.95 249.96 -18.26Q248.71 -17.58 247.99 -16.27Q247.27 -14.96 247.27 -13.09ZM290.84 0.39Q287.11 0.39 284.19 -1.42Q281.27 -3.22 279.6 -6.57Q277.93 -9.92 277.93 -14.53Q277.93 -19.16 279.6 -22.51Q281.27 -25.86 284.19 -27.68Q287.11 -29.49 290.84 -29.49Q293.05 -29.49 295.01 -28.85Q296.97 -28.2 298.54 -26.96Q300.1 -25.72 301.14 -23.96Q302.19 -22.19 302.58 -19.94L298.87 -19.94Q298.55 -21.45 297.8 -22.58Q297.05 -23.71 295.97 -24.49Q294.88 -25.27 293.57 -25.66Q292.27 -26.05 290.84 -26.05Q288.22 -26.05 286.11 -24.73Q284 -23.4 282.77 -20.83Q281.54 -18.26 281.54 -14.53Q281.54 -10.82 282.78 -8.25Q284.02 -5.68 286.13 -4.37Q288.24 -3.05 290.84 -3.05Q292.27 -3.05 293.57 -3.45Q294.88 -3.85 295.97 -4.62Q297.05 -5.39 297.8 -6.53Q298.55 -7.68 298.87 -9.16L302.58 -9.16Q302.21 -6.93 301.16 -5.18Q300.12 -3.42 298.55 -2.17Q296.99 -0.92 295.03 -0.26Q293.07 0.39 290.84 0.39ZM307.5 7.91L308.4 4.86L308.77 4.96Q309.84 5.23 310.72 5.11Q311.6 4.98 312.3 4.24Q313.01 3.5 313.54 1.93L314.16 0.12L305.82 -21.84L309.67 -21.84L314.32 -8.89Q315.06 -6.86 315.57 -4.86Q316.07 -2.87 316.64 -1L315.35 -1Q315.92 -2.87 316.44 -4.87Q316.95 -6.88 317.68 -8.89L322.36 -21.84L326.19 -21.84L316.6 3.26Q315.94 5 315.01 6.12Q314.08 7.25 312.85 7.78Q311.62 8.32 310.08 8.32Q309.14 8.32 308.46 8.18Q307.77 8.05 307.5 7.91ZM330.33 0L330.33 -21.84L333.73 -21.84L333.73 -18.48L333.96 -18.48Q334.57 -20.14 336.12 -21.14Q337.68 -22.15 339.63 -22.15Q340.02 -22.15 340.56 -22.13Q341.09 -22.11 341.41 -22.09L341.41 -18.55Q341.25 -18.59 340.63 -18.67Q340 -18.75 339.3 -18.75Q337.73 -18.75 336.49 -18.1Q335.25 -17.44 334.55 -16.3Q333.85 -15.16 333.85 -13.67L333.85 0ZM345.78 0L345.78 -21.84L349.3 -21.84L349.3 0ZM347.56 -25.41Q346.56 -25.41 345.84 -26.09Q345.12 -26.78 345.12 -27.73Q345.12 -28.71 345.84 -29.38Q346.56 -30.06 347.56 -30.06Q348.57 -30.06 349.3 -29.38Q350.02 -28.71 350.02 -27.73Q350.02 -26.78 349.3 -26.09Q348.57 -25.41 347.56 -25.41ZM358.98 -29.1L358.98 0L355.47 0L355.47 -29.1ZM368.67 -29.1L368.67 0L365.16 0L365.16 -29.1ZM374.84 0L374.84 -21.84L378.36 -21.84L378.36 0ZM376.62 -25.41Q375.63 -25.41 374.9 -26.09Q374.18 -26.78 374.18 -27.73Q374.18 -28.71 374.9 -29.38Q375.63 -30.06 376.62 -30.06Q377.64 -30.06 378.36 -29.38Q379.08 -28.71 379.08 -27.73Q379.08 -26.78 378.36 -26.09Q377.64 -25.41 376.62 -25.41ZM393.42 0.47Q390.45 0.47 388.21 -0.94Q385.98 -2.34 384.73 -4.88Q383.48 -7.42 383.48 -10.78Q383.48 -14.2 384.73 -16.75Q385.98 -19.3 388.21 -20.7Q390.45 -22.11 393.42 -22.11Q395 -22.11 396.41 -21.7Q397.81 -21.29 398.97 -20.52Q400.14 -19.75 400.98 -18.62Q401.82 -17.5 402.27 -16.07L398.89 -15.12Q398.65 -15.96 398.16 -16.66Q397.68 -17.36 396.98 -17.88Q396.29 -18.4 395.39 -18.68Q394.49 -18.96 393.42 -18.96Q391.23 -18.96 389.82 -17.82Q388.42 -16.68 387.73 -14.82Q387.05 -12.97 387.05 -10.78Q387.05 -8.63 387.73 -6.79Q388.42 -4.94 389.82 -3.81Q391.23 -2.68 393.42 -2.68Q394.51 -2.68 395.43 -2.97Q396.35 -3.26 397.06 -3.8Q397.77 -4.34 398.26 -5.08Q398.75 -5.82 398.98 -6.7L402.34 -5.74Q401.91 -4.28 401.06 -3.13Q400.21 -1.99 399.04 -1.18Q397.87 -0.37 396.45 0.05Q395.02 0.47 393.42 0.47ZM455.55 -14.04L455.55 -10.8L415.55 -10.8L415.55 -14.04ZM480.04 -21.84L480.04 -18.83L467.19 -18.83L467.19 -21.84ZM471.48 0L471.48 -24.75Q471.48 -26.64 472.37 -27.91Q473.26 -29.18 474.69 -29.82Q476.11 -30.47 477.7 -30.47Q478.95 -30.47 479.77 -30.26Q480.59 -30.06 480.98 -29.88L480 -26.88Q479.73 -26.97 479.29 -27.09Q478.85 -27.21 478.11 -27.21Q476.48 -27.21 475.74 -26.38Q475 -25.55 475 -23.96L475 0ZM484.69 0L484.69 -21.84L488.09 -21.84L488.09 -18.48L488.32 -18.48Q488.93 -20.14 490.48 -21.14Q492.03 -22.15 493.98 -22.15Q494.38 -22.15 494.91 -22.13Q495.45 -22.11 495.76 -22.09L495.76 -18.55Q495.61 -18.59 494.98 -18.67Q494.36 -18.75 493.65 -18.75Q492.09 -18.75 490.85 -18.1Q489.61 -17.44 488.91 -16.3Q488.2 -15.16 488.2 -13.67L488.2 0ZM508.26 0.47Q505.1 0.47 502.8 -0.94Q500.51 -2.34 499.27 -4.86Q498.03 -7.38 498.03 -10.74Q498.03 -14.1 499.24 -16.66Q500.45 -19.22 502.67 -20.66Q504.88 -22.11 507.85 -22.11Q509.59 -22.11 511.28 -21.53Q512.97 -20.96 514.35 -19.68Q515.72 -18.4 516.54 -16.31Q517.36 -14.22 517.36 -11.19L517.36 -9.73L500.41 -9.73L500.41 -12.7L515.47 -12.7L513.83 -11.6Q513.83 -13.75 513.15 -15.42Q512.48 -17.09 511.15 -18.04Q509.82 -18.98 507.85 -18.98Q505.88 -18.98 504.47 -18.02Q503.07 -17.05 502.32 -15.5Q501.58 -13.95 501.58 -12.17L501.58 -10.2Q501.58 -7.77 502.42 -6.08Q503.26 -4.39 504.78 -3.53Q506.29 -2.66 508.28 -2.66Q509.57 -2.66 510.63 -3.03Q511.68 -3.4 512.44 -4.15Q513.2 -4.9 513.61 -6.02L517.01 -5.08Q516.5 -3.44 515.29 -2.19Q514.08 -0.94 512.29 -0.23Q510.51 0.47 508.26 0.47ZM531.58 0.47Q528.42 0.47 526.12 -0.94Q523.83 -2.34 522.59 -4.86Q521.35 -7.38 521.35 -10.74Q521.35 -14.1 522.56 -16.66Q523.77 -19.22 525.99 -20.66Q528.2 -22.11 531.17 -22.11Q532.91 -22.11 534.6 -21.53Q536.29 -20.96 537.67 -19.68Q539.04 -18.4 539.86 -16.31Q540.68 -14.22 540.68 -11.19L540.68 -9.73L523.73 -9.73L523.73 -12.7L538.79 -12.7L537.15 -11.6Q537.15 -13.75 536.47 -15.42Q535.8 -17.09 534.47 -18.04Q533.14 -18.98 531.17 -18.98Q529.2 -18.98 527.79 -18.02Q526.39 -17.05 525.64 -15.5Q524.9 -13.95 524.9 -12.17L524.9 -10.2Q524.9 -7.77 525.74 -6.08Q526.58 -4.39 528.1 -3.53Q529.61 -2.66 531.6 -2.66Q532.89 -2.66 533.95 -3.03Q535 -3.4 535.76 -4.15Q536.52 -4.9 536.93 -6.02L540.33 -5.08Q539.82 -3.44 538.61 -2.19Q537.4 -0.94 535.62 -0.23Q533.83 0.47 531.58 0.47ZM565.21 0.39Q562.34 0.39 560.25 -0.67Q558.16 -1.74 557.04 -3.54Q555.92 -5.35 555.92 -7.6Q555.92 -9.51 556.7 -10.9Q557.48 -12.29 558.86 -13.48Q560.23 -14.67 561.97 -15.96L566.29 -19.14Q566.82 -19.53 567.44 -20.08Q568.07 -20.63 568.51 -21.39Q568.95 -22.15 568.95 -23.16Q568.95 -24.55 568.02 -25.45Q567.09 -26.35 565.51 -26.35Q564.41 -26.35 563.57 -25.9Q562.73 -25.45 562.28 -24.66Q561.82 -23.87 561.82 -22.81Q561.82 -21.72 562.31 -20.72Q562.81 -19.73 563.67 -18.65Q564.53 -17.58 565.63 -16.25L579.02 0L574.79 0L563.75 -13.24Q562.19 -15.14 560.95 -16.63Q559.71 -18.13 558.99 -19.59Q558.28 -21.05 558.28 -22.79Q558.28 -24.73 559.16 -26.21Q560.04 -27.7 561.65 -28.54Q563.26 -29.38 565.41 -29.38Q567.6 -29.38 569.18 -28.53Q570.76 -27.68 571.62 -26.26Q572.48 -24.84 572.48 -23.11Q572.48 -21.78 571.98 -20.64Q571.48 -19.51 570.62 -18.55Q569.75 -17.6 568.61 -16.76L562.79 -12.44Q561 -11.11 560.26 -9.97Q559.53 -8.83 559.53 -7.48Q559.53 -6.05 560.21 -4.97Q560.9 -3.89 562.13 -3.28Q563.36 -2.68 564.96 -2.68Q566.7 -2.68 568.3 -3.39Q569.9 -4.1 571.17 -5.43Q572.44 -6.76 573.18 -8.63Q573.93 -10.51 573.93 -12.85L577.3 -12.85Q577.3 -9.96 576.64 -8.11Q575.98 -6.25 575.13 -5.18Q574.28 -4.1 573.71 -3.55L573.01 -2.68Q571.58 -1.13 569.44 -0.37Q567.3 0.39 565.21 0.39ZM602.87 0.47Q599.9 0.47 597.67 -0.94Q595.43 -2.34 594.18 -4.88Q592.93 -7.42 592.93 -10.78Q592.93 -14.2 594.18 -16.75Q595.43 -19.3 597.67 -20.7Q599.9 -22.11 602.87 -22.11Q605.86 -22.11 608.11 -20.7Q610.35 -19.3 611.6 -16.75Q612.85 -14.2 612.85 -10.78Q612.85 -7.42 611.6 -4.88Q610.35 -2.34 608.11 -0.94Q605.86 0.47 602.87 0.47ZM602.87 -2.68Q605.08 -2.68 606.5 -3.81Q607.93 -4.94 608.61 -6.79Q609.3 -8.63 609.3 -10.78Q609.3 -12.95 608.61 -14.81Q607.93 -16.68 606.5 -17.82Q605.08 -18.96 602.87 -18.96Q600.68 -18.96 599.28 -17.82Q597.87 -16.68 597.19 -14.82Q596.5 -12.97 596.5 -10.78Q596.5 -8.63 597.19 -6.79Q597.87 -4.94 599.28 -3.81Q600.68 -2.68 602.87 -2.68ZM617.97 8.16L617.97 -21.84L621.37 -21.84L621.37 -18.34L621.76 -18.34Q622.13 -18.93 622.79 -19.81Q623.46 -20.7 624.71 -21.41Q625.96 -22.11 628.09 -22.11Q630.82 -22.11 632.9 -20.74Q634.98 -19.38 636.16 -16.85Q637.34 -14.32 637.34 -10.86Q637.34 -7.38 636.17 -4.84Q635 -2.3 632.92 -0.92Q630.84 0.47 628.11 0.47Q626.04 0.47 624.77 -0.24Q623.5 -0.96 622.81 -1.87Q622.13 -2.77 621.76 -3.38L621.48 -3.38L621.48 8.16ZM627.58 -2.68Q629.63 -2.68 631.01 -3.78Q632.38 -4.88 633.08 -6.75Q633.77 -8.61 633.77 -10.9Q633.77 -13.16 633.09 -14.99Q632.4 -16.82 631.03 -17.89Q629.65 -18.96 627.58 -18.96Q625.57 -18.96 624.2 -17.95Q622.83 -16.93 622.14 -15.13Q621.45 -13.32 621.45 -10.9Q621.45 -8.48 622.15 -6.62Q622.85 -4.77 624.23 -3.72Q625.61 -2.68 627.58 -2.68ZM651.64 0.47Q648.48 0.47 646.18 -0.94Q643.89 -2.34 642.65 -4.86Q641.41 -7.38 641.41 -10.74Q641.41 -14.1 642.62 -16.66Q643.83 -19.22 646.04 -20.66Q648.26 -22.11 651.23 -22.11Q652.97 -22.11 654.66 -21.53Q656.35 -20.96 657.72 -19.68Q659.1 -18.4 659.92 -16.31Q660.74 -14.22 660.74 -11.19L660.74 -9.73L643.79 -9.73L643.79 -12.7L658.85 -12.7L657.21 -11.6Q657.21 -13.75 656.53 -15.42Q655.86 -17.09 654.53 -18.04Q653.2 -18.98 651.23 -18.98Q649.26 -18.98 647.85 -18.02Q646.45 -17.05 645.7 -15.5Q644.96 -13.95 644.96 -12.17L644.96 -10.2Q644.96 -7.77 645.8 -6.08Q646.64 -4.39 648.15 -3.53Q649.67 -2.66 651.66 -2.66Q652.95 -2.66 654 -3.03Q655.06 -3.4 655.82 -4.15Q656.58 -4.9 656.99 -6.02L660.39 -5.08Q659.88 -3.44 658.67 -2.19Q657.46 -0.94 655.67 -0.23Q653.89 0.47 651.64 0.47ZM669.3 -13.09L669.3 0L665.78 0L665.78 -21.84L669.16 -21.84L669.18 -16.54L668.69 -16.54Q669.69 -19.57 671.53 -20.84Q673.38 -22.11 675.86 -22.11Q678.07 -22.11 679.73 -21.2Q681.39 -20.29 682.31 -18.47Q683.24 -16.64 683.24 -13.87L683.24 0L679.73 0L679.73 -13.57Q679.73 -16.09 678.41 -17.52Q677.09 -18.95 674.8 -18.95Q673.24 -18.95 671.99 -18.26Q670.74 -17.58 670.02 -16.27Q669.3 -14.96 669.3 -13.09Z" fill="#f3ece0"/>
</svg>
