<svg xmlns="http://www.w3.org/2000/svg" viewBox="0 0 64 64" role="img" aria-label="Bukvar">
  <!-- Generated by scripts/outline-brand.mjs: do not edit by hand. Text outlined: "Б" (Source Serif 4 Bold) -->
  <rect width="64" height="64" rx="14" fill="#16213a"/>
  <path transform="translate(18.12 47.72)" d="M1.26 0L1.26 -2.73L6.89 -3.02L7.56 -3.02L7.56 0ZM4.58 0Q4.62 -2.1 4.64 -4.22Q4.66 -6.34 4.66 -8.46Q4.66 -10.58 4.66 -12.73L4.66 -14.87Q4.66 -17.01 4.66 -19.13Q4.66 -21.25 4.64 -23.37Q4.62 -25.49 4.58 -27.59L12.05 -27.59Q12.01 -25.54 11.99 -23.42Q11.97 -21.29 11.97 -19.28Q11.97 -17.26 11.97 -15.29L11.97 -12.73Q11.97 -10.63 11.97 -8.51Q11.97 -6.38 11.99 -4.26Q12.01 -2.14 12.05 0ZM9.07 0L9.07 -2.65L13.23 -2.65Q15.25 -2.65 16.53 -3.3Q17.81 -3.95 18.44 -5.23Q19.07 -6.51 19.07 -8.36Q19.07 -10.21 18.5 -11.42Q17.93 -12.64 16.72 -13.25Q15.5 -13.86 13.48 -13.86Q12.14 -13.86 11.11 -13.71Q10.08 -13.57 9.11 -13.31L9.11 -16.04Q10.42 -16.25 11.91 -16.42Q13.4 -16.59 15.04 -16.59Q18.98 -16.59 21.53 -15.56Q24.07 -14.53 25.28 -12.73Q26.5 -10.92 26.5 -8.53Q26.5 -6.8 25.83 -5.25Q25.16 -3.7 23.67 -2.52Q22.18 -1.34 19.72 -0.67Q17.26 0 13.65 0ZM1.26 -24.91L1.26 -27.59L7.56 -27.59L7.56 -24.57L6.89 -24.57ZM20.62 -19.66L18.86 -27.05L21.71 -24.91L9.95 -24.91L9.95 -27.59L23.77 -27.59L23.9 -19.66Z" fill="#faf6ef"/>
</svg>
