<svg xmlns="http://www.w3.org/2000/svg" viewBox="0 0 512 512" role="img" aria-label="Bukvar">
  <!-- Generated by scripts/outline-brand.mjs: do not edit by hand. Text outlined: "Б" (Source Serif 4 Bold) -->
  <rect width="512" height="512" rx="104" fill="#16213a"/>
  <path transform="translate(150.24 371.36)" d="M9.6 0L9.6 -20.8L52.48 -23.04L57.6 -23.04L57.6 0ZM34.88 0Q35.2 -16 35.36 -32.16Q35.52 -48.32 35.52 -64.48Q35.52 -80.64 35.52 -96.96L35.52 -113.28Q35.52 -129.6 35.52 -145.76Q35.52 -161.92 35.36 -178.08Q35.2 -194.24 34.88 -210.24L91.84 -210.24Q91.52 -194.56 91.36 -178.4Q91.2 -162.24 91.2 -146.88Q91.2 -131.52 91.2 -116.48L91.2 -96.96Q91.2 -80.96 91.2 -64.8Q91.2 -48.64 91.36 -32.48Q91.52 -16.32 91.84 0ZM69.12 0L69.12 -20.16L100.8 -20.16Q116.16 -20.16 125.92 -25.12Q135.68 -30.08 140.48 -39.84Q145.28 -49.6 145.28 -63.68Q145.28 -77.76 140.96 -87.04Q136.64 -96.32 127.36 -100.96Q118.08 -105.6 102.72 -105.6Q92.48 -105.6 84.64 -104.48Q76.8 -103.36 69.44 -101.44L69.44 -122.24Q79.36 -123.84 90.72 -125.12Q102.08 -126.4 114.56 -126.4Q144.64 -126.4 164 -118.56Q183.36 -110.72 192.64 -96.96Q201.92 -83.2 201.92 -64.96Q201.92 -51.84 196.8 -40Q191.68 -28.16 180.32 -19.2Q168.96 -10.24 150.24 -5.12Q131.52 0 104 0ZM9.6 -189.76L9.6 -210.24L57.6 -210.24L57.6 -187.2L52.48 -187.2ZM157.12 -149.76L143.68 -206.08L165.44 -189.76L75.84 -189.76L75.84 -210.24L181.12 -210.24L182.08 -149.76Z" fill="#faf6ef"/>
</svg>
